<svg xmlns="http://www.w3.org/2000/svg" xmlns:xlink="http://www.w3.org/1999/xlink" width="500" zoomAndPan="magnify" viewBox="0 0 375 374.999991" height="500" preserveAspectRatio="xMidYMid meet" version="1.0"><defs><g/><clipPath id="254629cd97"><path d="M 275.226562 200.734375 L 293.945312 200.734375 L 293.945312 219.453125 L 275.226562 219.453125 Z M 275.226562 200.734375 " clip-rule="nonzero"/></clipPath><clipPath id="a402ca708e"><path d="M 284.585938 200.734375 C 279.417969 200.734375 275.226562 204.925781 275.226562 210.09375 C 275.226562 215.265625 279.417969 219.453125 284.585938 219.453125 C 289.753906 219.453125 293.945312 215.265625 293.945312 210.09375 C 293.945312 204.925781 289.753906 200.734375 284.585938 200.734375 Z M 284.585938 200.734375 " clip-rule="nonzero"/></clipPath></defs><rect x="-37.5" width="450" fill="#ffffff" y="-37.499999" height="449.999989" fill-opacity="1"/><rect x="-37.5" width="450" fill="#41c1ba" y="-37.499999" height="449.999989" fill-opacity="1"/><g fill="#365b6d" fill-opacity="1"><g transform="translate(24.350059, 217.080814)"><g><path d="M 4.265625 17.328125 C 3.859375 17.328125 3.65625 16.832031 3.65625 15.84375 L 3.65625 8.703125 C 3.65625 7.710938 3.828125 7.21875 4.171875 7.21875 L 4.703125 7.21875 C 8.296875 7.21875 10.859375 6.769531 12.390625 5.875 C 13.929688 4.976562 15.050781 3.132812 15.75 0.34375 C 15.863281 0.0507812 15.863281 -0.175781 15.75 -0.34375 L 1.734375 -43.09375 C 1.679688 -43.207031 1.65625 -43.378906 1.65625 -43.609375 C 1.65625 -43.953125 1.769531 -44.222656 2 -44.421875 C 2.226562 -44.628906 2.546875 -44.734375 2.953125 -44.734375 L 12.96875 -44.734375 C 13.78125 -44.734375 14.332031 -44.328125 14.625 -43.515625 L 21.765625 -17.578125 C 21.816406 -17.347656 21.929688 -17.234375 22.109375 -17.234375 C 22.285156 -17.234375 22.398438 -17.347656 22.453125 -17.578125 L 29.25 -43.4375 C 29.425781 -44.300781 29.976562 -44.734375 30.90625 -44.734375 L 40.90625 -44.734375 C 41.4375 -44.734375 41.816406 -44.570312 42.046875 -44.25 C 42.273438 -43.9375 42.300781 -43.550781 42.125 -43.09375 L 27.25 1.65625 C 25.789062 5.894531 24.304688 9.070312 22.796875 11.1875 C 21.296875 13.300781 19.179688 14.851562 16.453125 15.84375 C 13.722656 16.832031 9.863281 17.328125 4.875 17.328125 Z M 4.265625 17.328125 "/></g></g></g><g fill="#365b6d" fill-opacity="1"><g transform="translate(68.302818, 217.080814)"><g><path d="M 17.328125 0 C 16.515625 0 15.960938 -0.40625 15.671875 -1.21875 L 2.171875 -43.09375 C 2.117188 -43.207031 2.09375 -43.378906 2.09375 -43.609375 C 2.09375 -43.953125 2.207031 -44.222656 2.4375 -44.421875 C 2.664062 -44.628906 2.984375 -44.734375 3.390625 -44.734375 L 13.671875 -44.734375 C 14.484375 -44.734375 15.03125 -44.300781 15.3125 -43.4375 L 22.28125 -17.328125 C 22.34375 -17.085938 22.457031 -16.96875 22.625 -16.96875 C 22.800781 -16.96875 22.921875 -17.085938 22.984375 -17.328125 L 29.9375 -43.4375 C 30.226562 -44.300781 30.78125 -44.734375 31.59375 -44.734375 L 41.875 -44.65625 C 42.394531 -44.65625 42.769531 -44.492188 43 -44.171875 C 43.226562 -43.859375 43.257812 -43.46875 43.09375 -43 L 29.6875 -1.21875 C 29.394531 -0.40625 28.8125 0 27.9375 0 Z M 17.328125 0 "/></g></g></g><g fill="#365b6d" fill-opacity="1"><g transform="translate(113.561108, 217.080814)"><g><path d="M 26.109375 -9.65625 C 29.941406 -9.832031 32.875 -11.171875 34.90625 -13.671875 C 35.25 -14.078125 35.625 -14.28125 36.03125 -14.28125 C 36.382812 -14.28125 36.707031 -14.132812 37 -13.84375 L 41.953125 -9.046875 C 42.304688 -8.703125 42.484375 -8.359375 42.484375 -8.015625 C 42.484375 -7.609375 42.363281 -7.257812 42.125 -6.96875 C 40.21875 -4.582031 37.769531 -2.707031 34.78125 -1.34375 C 31.789062 0.0195312 28.523438 0.703125 24.984375 0.703125 C 19.640625 0.703125 15.210938 -0.660156 11.703125 -3.390625 C 8.191406 -6.117188 5.828125 -9.863281 4.609375 -14.625 C 3.910156 -17.175781 3.5625 -19.875 3.5625 -22.71875 C 3.5625 -26.082031 3.882812 -28.925781 4.53125 -31.25 C 5.6875 -35.539062 8.019531 -38.992188 11.53125 -41.609375 C 15.039062 -44.222656 19.207031 -45.53125 24.03125 -45.53125 C 29.71875 -45.53125 34.226562 -43.84375 37.5625 -40.46875 C 40.894531 -37.101562 43.054688 -32.375 44.046875 -26.28125 C 44.273438 -24.375 44.445312 -22.257812 44.5625 -19.9375 C 44.5625 -18.945312 44.070312 -18.453125 43.09375 -18.453125 L 16.359375 -18.453125 C 16.015625 -18.453125 15.84375 -18.28125 15.84375 -17.9375 C 16.019531 -16.71875 16.222656 -15.816406 16.453125 -15.234375 C 17.035156 -13.429688 18.179688 -12.050781 19.890625 -11.09375 C 21.597656 -10.132812 23.671875 -9.65625 26.109375 -9.65625 Z M 23.84375 -34.90625 C 21.988281 -34.90625 20.4375 -34.453125 19.1875 -33.546875 C 17.945312 -32.648438 17.09375 -31.390625 16.625 -29.765625 C 16.332031 -28.660156 16.160156 -27.9375 16.109375 -27.59375 C 16.046875 -27.25 16.1875 -27.078125 16.53125 -27.078125 L 31.34375 -27.078125 C 31.625 -27.078125 31.765625 -27.191406 31.765625 -27.421875 C 31.765625 -28.054688 31.648438 -28.722656 31.421875 -29.421875 C 30.898438 -31.109375 30 -32.441406 28.71875 -33.421875 C 27.445312 -34.410156 25.820312 -34.90625 23.84375 -34.90625 Z M 23.84375 -34.90625 "/></g></g></g><g fill="#365b6d" fill-opacity="1"><g transform="translate(161.169351, 217.080814)"><g><path d="M 30.203125 -36.390625 C 30.203125 -35.398438 29.707031 -34.90625 28.71875 -34.90625 L 20.890625 -34.90625 C 20.546875 -34.90625 20.375 -34.734375 20.375 -34.390625 L 20.375 -16.359375 C 20.375 -14.453125 20.765625 -13.046875 21.546875 -12.140625 C 22.328125 -11.242188 23.585938 -10.796875 25.328125 -10.796875 L 27.765625 -10.796875 C 28.753906 -10.796875 29.25 -10.300781 29.25 -9.3125 L 29.25 -1.828125 C 29.25 -0.898438 28.753906 -0.378906 27.765625 -0.265625 C 25.554688 -0.148438 23.960938 -0.09375 22.984375 -0.09375 C 18.160156 -0.09375 14.5625 -0.90625 12.1875 -2.53125 C 9.8125 -4.15625 8.59375 -7.171875 8.53125 -11.578125 L 8.53125 -34.390625 C 8.53125 -34.734375 8.359375 -34.90625 8.015625 -34.90625 L 3.5625 -34.90625 C 2.582031 -34.90625 2.09375 -35.398438 2.09375 -36.390625 L 2.09375 -43.265625 C 2.09375 -44.242188 2.582031 -44.734375 3.5625 -44.734375 L 8.015625 -44.734375 C 8.359375 -44.734375 8.53125 -44.910156 8.53125 -45.265625 L 8.53125 -55.09375 C 8.53125 -56.082031 9.023438 -56.578125 10.015625 -56.578125 L 18.890625 -56.578125 C 19.878906 -56.578125 20.375 -56.082031 20.375 -55.09375 L 20.375 -45.265625 C 20.375 -44.910156 20.546875 -44.734375 20.890625 -44.734375 L 28.71875 -44.734375 C 29.707031 -44.734375 30.203125 -44.242188 30.203125 -43.265625 Z M 30.203125 -36.390625 "/></g></g></g><g fill="#365b6d" fill-opacity="1"><g transform="translate(194.242717, 217.080814)"><g><path d="M 30.203125 -36.390625 C 30.203125 -35.398438 29.707031 -34.90625 28.71875 -34.90625 L 20.890625 -34.90625 C 20.546875 -34.90625 20.375 -34.734375 20.375 -34.390625 L 20.375 -16.359375 C 20.375 -14.453125 20.765625 -13.046875 21.546875 -12.140625 C 22.328125 -11.242188 23.585938 -10.796875 25.328125 -10.796875 L 27.765625 -10.796875 C 28.753906 -10.796875 29.25 -10.300781 29.25 -9.3125 L 29.25 -1.828125 C 29.25 -0.898438 28.753906 -0.378906 27.765625 -0.265625 C 25.554688 -0.148438 23.960938 -0.09375 22.984375 -0.09375 C 18.160156 -0.09375 14.5625 -0.90625 12.1875 -2.53125 C 9.8125 -4.15625 8.59375 -7.171875 8.53125 -11.578125 L 8.53125 -34.390625 C 8.53125 -34.734375 8.359375 -34.90625 8.015625 -34.90625 L 3.5625 -34.90625 C 2.582031 -34.90625 2.09375 -35.398438 2.09375 -36.390625 L 2.09375 -43.265625 C 2.09375 -44.242188 2.582031 -44.734375 3.5625 -44.734375 L 8.015625 -44.734375 C 8.359375 -44.734375 8.53125 -44.910156 8.53125 -45.265625 L 8.53125 -55.09375 C 8.53125 -56.082031 9.023438 -56.578125 10.015625 -56.578125 L 18.890625 -56.578125 C 19.878906 -56.578125 20.375 -56.082031 20.375 -55.09375 L 20.375 -45.265625 C 20.375 -44.910156 20.546875 -44.734375 20.890625 -44.734375 L 28.71875 -44.734375 C 29.707031 -44.734375 30.203125 -44.242188 30.203125 -43.265625 Z M 30.203125 -36.390625 "/></g></g></g><g fill="#365b6d" fill-opacity="1"><g transform="translate(227.316094, 217.080814)"><g><path d="M 26.109375 -9.65625 C 29.941406 -9.832031 32.875 -11.171875 34.90625 -13.671875 C 35.25 -14.078125 35.625 -14.28125 36.03125 -14.28125 C 36.382812 -14.28125 36.707031 -14.132812 37 -13.84375 L 41.953125 -9.046875 C 42.304688 -8.703125 42.484375 -8.359375 42.484375 -8.015625 C 42.484375 -7.609375 42.363281 -7.257812 42.125 -6.96875 C 40.21875 -4.582031 37.769531 -2.707031 34.78125 -1.34375 C 31.789062 0.0195312 28.523438 0.703125 24.984375 0.703125 C 19.640625 0.703125 15.210938 -0.660156 11.703125 -3.390625 C 8.191406 -6.117188 5.828125 -9.863281 4.609375 -14.625 C 3.910156 -17.175781 3.5625 -19.875 3.5625 -22.71875 C 3.5625 -26.082031 3.882812 -28.925781 4.53125 -31.25 C 5.6875 -35.539062 8.019531 -38.992188 11.53125 -41.609375 C 15.039062 -44.222656 19.207031 -45.53125 24.03125 -45.53125 C 29.71875 -45.53125 34.226562 -43.84375 37.5625 -40.46875 C 40.894531 -37.101562 43.054688 -32.375 44.046875 -26.28125 C 44.273438 -24.375 44.445312 -22.257812 44.5625 -19.9375 C 44.5625 -18.945312 44.070312 -18.453125 43.09375 -18.453125 L 16.359375 -18.453125 C 16.015625 -18.453125 15.84375 -18.28125 15.84375 -17.9375 C 16.019531 -16.71875 16.222656 -15.816406 16.453125 -15.234375 C 17.035156 -13.429688 18.179688 -12.050781 19.890625 -11.09375 C 21.597656 -10.132812 23.671875 -9.65625 26.109375 -9.65625 Z M 23.84375 -34.90625 C 21.988281 -34.90625 20.4375 -34.453125 19.1875 -33.546875 C 17.945312 -32.648438 17.09375 -31.390625 16.625 -29.765625 C 16.332031 -28.660156 16.160156 -27.9375 16.109375 -27.59375 C 16.046875 -27.25 16.1875 -27.078125 16.53125 -27.078125 L 31.34375 -27.078125 C 31.625 -27.078125 31.765625 -27.191406 31.765625 -27.421875 C 31.765625 -28.054688 31.648438 -28.722656 31.421875 -29.421875 C 30.898438 -31.109375 30 -32.441406 28.71875 -33.421875 C 27.445312 -34.410156 25.820312 -34.90625 23.84375 -34.90625 Z M 23.84375 -34.90625 "/></g></g></g><g clip-path="url(#254629cd97)"><g clip-path="url(#a402ca708e)"><path fill="#365b6d" d="M 275.226562 200.734375 L 293.945312 200.734375 L 293.945312 219.453125 L 275.226562 219.453125 Z M 275.226562 200.734375 " fill-opacity="1" fill-rule="nonzero"/></g></g></svg>